<?xml version="1.0" encoding="utf-8"?>
<svg viewBox="0 0 512 512" xmlns="http://www.w3.org/2000/svg">
  <g transform="matrix(3.840308, 0, 0, 3.504354, -16.553074, -874.063293)" style="">
    <g>
      <g>
        <g>
          <g>
            <g>
              <g>
                <g>
                  <defs>
                    <path id="SVGID_1_" d="M80.4,311.9c-22.9,0.3-48.1,19-56.8,25.6l0.3,36.4c8.3-10.4,33.6-34.6,58.9-38.1 c1,0,2.1-0.3,2.8-0.3L82.9,313c0-0.7-0.3-1-0.3-1.7C81.5,311.6,81.1,311.6,80.4,311.9L80.4,311.9"/>
                  </defs>
                  <clipPath id="SVGID_2_">
                    <path d="M80.4,311.9c-22.9,0.3-48.1,19-56.8,25.6l0.3,36.4c8.3-10.4,33.6-34.6,58.9-38.1 c1,0,2.1-0.3,2.8-0.3L82.9,313c0-0.7-0.3-1-0.3-1.7C81.5,311.6,81.1,311.6,80.4,311.9L80.4,311.9" transform="matrix(1, 0, 0, 1, 0, 0)" style="overflow: visible;"/>
                  </clipPath>
                  <linearGradient id="SVGID_3_" gradientUnits="userSpaceOnUse" x1="230.0185" y1="613.2886" x2="233.7829" y2="613.2886" gradientTransform="matrix(18.9267 -6.1497 -6.1497 -18.9267 -564.1332 13377.1426)">
                    <stop offset="0" style="stop-color:#006FB9"/>
                    <stop offset="0.1087" style="stop-color:#0080C7"/>
                    <stop offset="0.3219" style="stop-color:#00ABEC"/>
                    <stop offset="0.3333" style="stop-color:#00ADEE"/>
                    <stop offset="0.4317" style="stop-color:#00A4E3"/>
                    <stop offset="0.6024" style="stop-color:#008BC7"/>
                    <stop offset="0.8233" style="stop-color:#006399"/>
                    <stop offset="1" style="stop-color:#003E70"/>
                  </linearGradient>
                  <polygon class="st0" points="5.3,318.1 80.4,293.6 103.6,368.3 29.5,391.9 &#9;&#9;&#9;&#9;&#9;&#9;&#9;&#9;" style="clip-path: url(#SVGID_2_); fill: url(#SVGID_3_);"/>
                </g>
              </g>
            </g>
          </g>
        </g>
      </g>
    </g>
    <g>
      <g>
        <g>
          <g>
            <g>
              <g>
                <g>
                  <defs>
                    <path id="SVGID_4_" d="M88,317.5c-3.1,0.3-4.5-0.7-4.5-3.8l3.1,22.5l0,0c0.3,3.5,1,8.7,5.9,8c6.9-1,18-5.9,31.9-18.7v-33.2 C111.9,308.1,93.9,316.4,88,317.5"/>
                  </defs>
                  <clipPath id="SVGID_5_">
                    <path d="M88,317.5c-3.1,0.3-4.5-0.7-4.5-3.8l3.1,22.5l0,0c0.3,3.5,1,8.7,5.9,8c6.9-1,18-5.9,31.9-18.7v-33.2 C111.9,308.1,93.9,316.4,88,317.5" transform="matrix(1, 0, 0, 1, 0, 0)" style="overflow: visible;"/>
                  </clipPath>
                  <linearGradient id="SVGID_6_" gradientUnits="userSpaceOnUse" x1="226.3425" y1="606.5328" x2="230.1066" y2="606.5328" gradientTransform="matrix(12.1364 -2.5797 -2.5797 -12.1364 -1099.3472 8267.6895)">
                    <stop offset="0" style="stop-color:#006FB9"/>
                    <stop offset="0.0126" style="stop-color:#0077C0"/>
                    <stop offset="0.0566" style="stop-color:#008FD4"/>
                    <stop offset="0.1034" style="stop-color:#00A0E3"/>
                    <stop offset="0.1545" style="stop-color:#00AAEB"/>
                    <stop offset="0.2182" style="stop-color:#00ADEE"/>
                    <stop offset="0.3335" style="stop-color:#00A4E3"/>
                    <stop offset="0.5337" style="stop-color:#008BC7"/>
                    <stop offset="0.7927" style="stop-color:#006399"/>
                    <stop offset="1" style="stop-color:#003E70"/>
                  </linearGradient>
                  <polygon class="st1" points="71.8,293.9 122.3,283.2 135.1,342.4 84.6,353.5 &#9;&#9;&#9;&#9;&#9;&#9;&#9;&#9;" style="clip-path: url(#SVGID_5_); fill: url(#SVGID_6_);"/>
                </g>
              </g>
            </g>
          </g>
        </g>
      </g>
    </g>
    <g>
      <g>
        <g>
          <g>
            <g>
              <g>
                <g>
                  <defs>
                    <path id="SVGID_7_" d="M85.6,336.1c-0.7,0-1.7,0-2.8,0.3C57.6,340,32,364.2,23.7,374.6v6.6H50c6.9-8,27.7-21.5,39.5-21.1 L85.6,336.1L85.6,336.1z"/>
                  </defs>
                  <clipPath id="SVGID_8_">
                    <path d="M85.6,336.1c-0.7,0-1.7,0-2.8,0.3C57.6,340,32,364.2,23.7,374.6v6.6H50c6.9-8,27.7-21.5,39.5-21.1 L85.6,336.1L85.6,336.1z" transform="matrix(1, 0, 0, 1, 0, 0)" style="overflow: visible;"/>
                  </clipPath>
                  <linearGradient id="SVGID_9_" gradientUnits="userSpaceOnUse" x1="230.0559" y1="610.5424" x2="233.82" y2="610.5424" gradientTransform="matrix(18.1812 -3.8646 -3.8646 -18.1812 -1802.3015 12355.4893)">
                    <stop offset="0" style="stop-color:#6A100E"/>
                    <stop offset="0.0088" style="stop-color:#6F110F"/>
                    <stop offset="0.0907" style="stop-color:#951B15"/>
                    <stop offset="0.1759" style="stop-color:#B5231B"/>
                    <stop offset="0.2637" style="stop-color:#CE2A1F"/>
                    <stop offset="0.3555" style="stop-color:#DF2E22"/>
                    <stop offset="0.4538" style="stop-color:#EA3123"/>
                    <stop offset="0.5697" style="stop-color:#ED3224"/>
                    <stop offset="0.6318" style="stop-color:#E22F22"/>
                    <stop offset="0.7407" style="stop-color:#C5281D"/>
                    <stop offset="0.8824" style="stop-color:#961B15"/>
                    <stop offset="1" style="stop-color:#6A100E"/>
                  </linearGradient>
                  <polygon class="st2" points="14.6,337.5 86.7,322.6 98.1,379.4 26.4,394 &#9;&#9;&#9;&#9;&#9;&#9;&#9;&#9;" style="clip-path: url(#SVGID_8_); fill: url(#SVGID_9_);"/>
                </g>
              </g>
            </g>
          </g>
        </g>
      </g>
    </g>
    <g>
      <g>
        <g>
          <g>
            <g>
              <g>
                <g>
                  <defs>
                    <path id="SVGID_10_" d="M91.5,344.1c-5.2,0.7-5.5-4.5-5.9-8l0,0l3.5,23.9c0.3,2.8,1.4,5.9,4.2,7.3 c7.6,4.2,31.2-10.4,31.2-10.4v-31.9C109.5,337.9,98.4,343.1,91.5,344.1"/>
                  </defs>
                  <clipPath id="SVGID_11_">
                    <path d="M91.5,344.1c-5.2,0.7-5.5-4.5-5.9-8l0,0l3.5,23.9c0.3,2.8,1.4,5.9,4.2,7.3 c7.6,4.2,31.2-10.4,31.2-10.4v-31.9C109.5,337.9,98.4,343.1,91.5,344.1" transform="matrix(1, 0, 0, 1, 0, 0)" style="overflow: visible;"/>
                  </clipPath>
                  <linearGradient id="SVGID_12_" gradientUnits="userSpaceOnUse" x1="223.8211" y1="602.6235" x2="227.5862" y2="602.6235" gradientTransform="matrix(10.778 -2.2909 -2.2909 -10.778 -944.2495 7359.9712)">
                    <stop offset="0" style="stop-color:#6A100E"/>
                    <stop offset="0.005" style="stop-color:#6F110F"/>
                    <stop offset="0.0521" style="stop-color:#951B15"/>
                    <stop offset="0.101" style="stop-color:#B5231B"/>
                    <stop offset="0.1515" style="stop-color:#CE2A1F"/>
                    <stop offset="0.2042" style="stop-color:#DF2E22"/>
                    <stop offset="0.2607" style="stop-color:#EA3123"/>
                    <stop offset="0.3273" style="stop-color:#ED3224"/>
                    <stop offset="0.4244" style="stop-color:#E22F22"/>
                    <stop offset="0.5946" style="stop-color:#C5281D"/>
                    <stop offset="0.8162" style="stop-color:#961B15"/>
                    <stop offset="1" style="stop-color:#6A100E"/>
                  </linearGradient>
                  <polygon class="st3" points="76.3,327.1 122.3,317.5 133.7,369.4 88,379.4 &#9;&#9;&#9;&#9;&#9;&#9;&#9;&#9;" style="clip-path: url(#SVGID_11_); fill: url(#SVGID_12_);"/>
                </g>
              </g>
            </g>
          </g>
        </g>
      </g>
    </g>
    <g>
      <g>
        <g>
          <g>
            <g>
              <g>
                <g>
                  <defs>
                    <path id="SVGID_13_" d="M79.7,291.1c0,0,0.3,0.3,0.7,0.3c0.3,0.3,1.4,0.3,2.4,0.3l0,0l-0.7-3.8 C81.5,289.1,79.4,290.1,79.7,291.1"/>
                  </defs>
                  <clipPath id="SVGID_14_">
                    <path d="M79.7,291.1c0,0,0.3,0.3,0.7,0.3c0.3,0.3,1.4,0.3,2.4,0.3l0,0l-0.7-3.8 C81.5,289.1,79.4,290.1,79.7,291.1" transform="matrix(1, 0, 0, 1, 0, 0)" style="overflow: visible;"/>
                  </clipPath>
                  <linearGradient id="SVGID_15_" gradientUnits="userSpaceOnUse" x1="77.8557" y1="853.4019" x2="81.6263" y2="853.4019" gradientTransform="matrix(-0.2121 -0.9982 -0.9982 0.2121 949.4977 189.0639)">
                    <stop offset="0" style="stop-color:#D4AB08"/>
                    <stop offset="0.5398" style="stop-color:#E9D021"/>
                    <stop offset="1" style="stop-color:#F8EC33"/>
                  </linearGradient>
                  <polygon class="st4" points="79.4,292.2 78,288 82.2,287.3 83.2,291.8 &#9;&#9;&#9;&#9;&#9;&#9;&#9;&#9;" style="clip-path: url(#SVGID_14_); fill: url(#SVGID_15_);"/>
                </g>
              </g>
            </g>
          </g>
        </g>
      </g>
    </g>
    <g>
      <g>
        <g>
          <g>
            <g>
              <g>
                <g>
                  <defs>
                    <path id="SVGID_16_" d="M23.7,309.8v28.4c8.3-6.9,33.6-25.3,56.8-25.6c1,0,1.7,0,2.4,0l-3.1-21.1c-1-1.7,9-4.2-5.9-4.5 c-0.3,0-1,0-1.4,0C42,286.3,23.7,309.8,23.7,309.8"/>
                  </defs>
                  <clipPath id="SVGID_17_">
                    <path d="M23.7,309.8v28.4c8.3-6.9,33.6-25.3,56.8-25.6c1,0,1.7,0,2.4,0l-3.1-21.1c-1-1.7,9-4.2-5.9-4.5 c-0.3,0-1,0-1.4,0C42,286.3,23.7,309.8,23.7,309.8" transform="matrix(1, 0, 0, 1, 0, 0)" style="overflow: visible;"/>
                  </clipPath>
                  <linearGradient id="SVGID_18_" gradientUnits="userSpaceOnUse" x1="229.5019" y1="613.9222" x2="233.2667" y2="613.9222" gradientTransform="matrix(17.837 -5.7956 -5.7956 -17.837 -516.2161 12604.748)">
                    <stop offset="0" style="stop-color:#FFDC00"/>
                    <stop offset="0.1818" style="stop-color:#F8EC33"/>
                    <stop offset="0.305" style="stop-color:#EDD926"/>
                    <stop offset="0.5062" style="stop-color:#DFC016"/>
                    <stop offset="0.6893" style="stop-color:#D7B00C"/>
                    <stop offset="0.8364" style="stop-color:#D4AB08"/>
                    <stop offset="0.921" style="stop-color:#D2A908"/>
                    <stop offset="0.9607" style="stop-color:#CAA307"/>
                    <stop offset="0.9909" style="stop-color:#BE9906"/>
                    <stop offset="1" style="stop-color:#B89505"/>
                  </linearGradient>
                  <polygon class="st5" points="8.1,291.5 82.2,267.3 103.3,333 29.5,357.3 &#9;&#9;&#9;&#9;&#9;&#9;&#9;&#9;" style="clip-path: url(#SVGID_17_); fill: url(#SVGID_18_);"/>
                </g>
              </g>
            </g>
          </g>
        </g>
      </g>
    </g>
    <g>
      <g>
        <g>
          <g>
            <g>
              <g>
                <g>
                  <defs>
                    <path id="SVGID_19_" d="M80.4,291.5c-0.3,0-0.3-0.3-0.7-0.3l3.1,21.1c0.3,2.4,0.7,5.5,4.8,5.2c6.2-1,24.2-9.3,36.4-25.3 v-33.2l0,0C106.1,289.4,83.9,293.2,80.4,291.5"/>
                  </defs>
                  <clipPath id="SVGID_20_">
                    <path d="M80.4,291.5c-0.3,0-0.3-0.3-0.7-0.3l3.1,21.1c0.3,2.4,0.7,5.5,4.8,5.2c6.2-1,24.2-9.3,36.4-25.3 v-33.2l0,0C106.1,289.4,83.9,293.2,80.4,291.5" transform="matrix(1, 0, 0, 1, 0, 0)" style="overflow: visible;"/>
                  </clipPath>
                  <linearGradient id="SVGID_21_" gradientUnits="userSpaceOnUse" x1="228.3289" y1="609.6497" x2="232.0934" y2="609.6497" gradientTransform="matrix(13.4628 -2.8616 -2.8616 -13.4628 -1250.8081 9154.5166)">
                    <stop offset="0" style="stop-color:#FFDC00"/>
                    <stop offset="0.1818" style="stop-color:#F8EC33"/>
                    <stop offset="0.3358" style="stop-color:#EDD926"/>
                    <stop offset="0.5873" style="stop-color:#DFC016"/>
                    <stop offset="0.8162" style="stop-color:#D7B00C"/>
                    <stop offset="1" style="stop-color:#D4AB08"/>
                  </linearGradient>
                  <polygon class="st6" points="67.6,261.7 122.3,250.3 136.2,315.4 81.1,327.1 &#9;&#9;&#9;&#9;&#9;&#9;&#9;&#9;" style="clip-path: url(#SVGID_20_); fill: url(#SVGID_21_);"/>
                </g>
              </g>
            </g>
          </g>
        </g>
      </g>
    </g>
    <path class="st7" d="M32.7,340.3c0.3,1.4,0.7,2.1,1,3.5c1-0.7,1.7-1,2.8-1.7c-0.7,1.7-1.4,2.4-2.1,3.8c0.3,1.4,0.7,2.1,1,3.5 c-1-0.3-1.4-0.3-2.4-1c-0.7,1.4-1,2.1-2.1,3.8c0.3-1.7,0.3-2.8,0.7-4.5c-0.7-0.3-1-0.7-2.1-1.4c1-0.3,1.4-0.7,2.4-1.4 C32.3,342.7,32.3,342,32.7,340.3" style="fill: rgb(255, 255, 255);"/>
    <path class="st7" d="M42,333.7c0.3,1.4,0.7,2.1,1.4,3.5c1-0.7,1.7-1,2.8-1.7c-1,1.7-1.4,2.4-2.4,3.8c0.3,1.4,0.7,2.1,1,3.5 c-1-0.3-1.7-0.7-2.8-1c-0.7,2.1-1,2.8-2.1,4.2c0.3-1.7,0.3-2.8,0.7-4.5c-1-0.3-1.4-0.7-2.4-1c1-0.7,1.7-1,2.8-1.7 C41.7,336.5,41.7,335.8,42,333.7" style="fill: rgb(255, 255, 255);"/>
    <path class="st7" d="M52.7,327.5c0.7,1.4,0.7,2.1,1.4,3.5c1.4-0.7,2.1-1,3.5-1.4c-1,1.4-1.7,2.4-2.8,3.8c0.3,1.4,0.7,2.1,1.4,3.5 c-1.4-0.3-1.7-0.7-3.1-1c-1,1.4-1.7,2.4-2.8,3.8c0.3-1.7,0.3-2.8,0.7-4.5c-1-0.3-1.7-0.7-2.8-1c1.4-0.7,2.1-1,3.5-1.7 C52,329.9,52.7,329.2,52.7,327.5" style="fill: rgb(255, 255, 255);"/>
    <path class="st7" d="M64.2,322.3c0.7,1.4,1,2.1,1.4,3.5c1.4-0.3,2.1-0.7,3.8-1c-1,1.4-1.7,2.1-2.8,3.5c0.7,1.4,0.7,2.1,1.4,3.8 c-1.4-0.7-2.1-0.7-3.1-1.4c-1,1.4-1.7,2.1-2.8,3.5c0.3-1.7,0.3-2.8,0.7-4.5c-1.4-0.7-2.1-0.7-3.1-1.4c1.4-0.7,2.1-1,3.5-1.4 C63.8,325.1,63.8,324,64.2,322.3" style="fill: rgb(255, 255, 255);"/>
    <path class="st7" d="M77,319.2c0.7,1.4,1,2.1,1.7,3.8c1.4,0,2.1-0.3,3.8-0.3c-1,1-1.7,1.7-2.8,2.8c0.7,1.4,1,2.1,1.4,3.8 c-1.4-0.7-2.1-1-3.5-1.7c-1,1-1.7,1.7-2.8,2.8c0.3-1.7,0.3-2.4,0.7-4.2c-1.4-0.7-2.1-1-3.1-1.7c1.4-0.3,2.1-0.7,3.8-0.7 C76.3,321.6,76.3,320.9,77,319.2" style="fill: rgb(255, 255, 255);"/>
    <path class="st7" d="M90.5,323.3c0.3,1.7,1,2.4,1.4,4.2c1.4-0.3,2.1-0.7,3.5-1c-1.4,1.7-1.7,2.4-2.8,3.8c0.3,1.7,0.7,2.4,1,4.2 c-1-0.7-1.7-1-3.1-2.1c-1.4,1-2.1,1.4-2.8,1.7c0.3-1.4,0.3-2.1,1-3.5c-1-1.4-1.4-2.1-2.4-3.5c1.4,0.7,1.7,0.7,3.1,1 C89.8,326.1,89.8,325.4,90.5,323.3" style="fill: rgb(255, 255, 255);"/>
    <path class="st7" d="M102.6,318.5c0.3,1.7,0.7,2.4,1,3.8c1.4-0.7,2.4-1.4,3.8-2.4c-1.4,2.1-2.1,3.1-3.5,4.8c0.3,1.7,0.7,2.4,1,4.2 c-1-0.3-1.7-0.7-3.1-1c-1.4,1.7-1.7,2.8-3.1,4.2c0.3-2.1,0.7-3.1,1-4.8c-1-0.7-1.7-1-2.8-1.4c1.4-0.7,2.1-1,3.5-1.7 C101.9,321.3,101.9,320.2,102.6,318.5" style="fill: rgb(255, 255, 255);"/>
    <path class="st7" d="M115.4,309.1c0.3,1.7,0.7,2.4,1,3.8c1.4-1.4,2.1-1.7,3.5-3.1c-1,2.4-1.7,3.5-3.1,5.5c0.3,1.7,0.3,2.4,0.7,4.2 c-1,0-1.7-0.3-2.8-0.3c-1.4,2.1-1.7,3.1-3.1,4.8c0.7-2.4,0.7-3.5,1.4-5.5c-1-0.3-1.7-0.7-2.8-1c1.4-1,2.1-1.7,3.5-2.8 C114.7,312.3,115.4,311.2,115.4,309.1" style="fill: rgb(255, 255, 255);"/>
  </g>
</svg>